<svg xmlns="http://www.w3.org/2000/svg" width="400" height="340"><path fill="none" d="M336.9314094416111,312.2210670989916C320.4183299012864,329.658887715272,271.35328486956286,320.90714864866885,243.99534826563436,324.6269236976822C216.6374116617059,328.3466987466955,191.08380198445323,342.79831195232686,172.78378981804025,334.5397173930716C154.48377765162726,326.28112283381637,146.2279300570099,294.16530924099584,134.1952752671565,275.0753563421506C122.16262047730308,255.98540344330533,108.70032476253323,244.2525019870944,100.58786107891977,220C92.47539739530632,195.7474980129056,71.76350326285066,143.34333952927884,85.52049316547574,129.56034441958417C99.27748306810082,115.77734930988949,155.31897494301515,143.97025188395935,183.1298004946702,137.30202934183194C210.94062604632526,130.63380679970453,238.2390932746623,82.79221749421511,252.38544647540607,89.5510091668198C266.53179967614983,96.30980083942448,252.89318986043676,156.11328090526337,268.0079196991328,177.85477937746006C283.1226495378288,199.59627784965676,331.5865772171692,197.60561871307806,343.0738255075822,220C354.5610737979953,242.39438128692194,353.44448898193576,294.78324648271126,336.9314094416111,312.2210670989916" stroke="#1c5063" stroke-width="3"/></svg>